STARTFONT 2.1
FONT -proOS-proFont-Medium-R-Normal--8-80-75-75-C-80-ISO10646-1
SIZE 8 75 75
FONTBOUNDINGBOX 8 8 0 0
STARTPROPERTIES 6
FAMILY_NAME "proFont"
FOUNDRY "proOS"
PIXEL_SIZE 8
FONT_ASCENT 8
FONT_DESCENT 0
SPACING "C"
ENDPROPERTIES
CHARS 96
STARTCHAR space
    ENCODING 32
    SWIDTH 800 0
    DWIDTH 8 0
    BBX 8 8 0 0
    BITMAP
    00
00
00
00
00
00
00
00
    ENDCHAR
STARTCHAR U+0021
    ENCODING 33
    SWIDTH 800 0
    DWIDTH 8 0
    BBX 8 8 0 0
    BITMAP
    18
3C
3C
18
18
00
18
00
    ENDCHAR
STARTCHAR U+0022
    ENCODING 34
    SWIDTH 800 0
    DWIDTH 8 0
    BBX 8 8 0 0
    BITMAP
    36
36
24
00
00
00
00
00
    ENDCHAR
STARTCHAR U+0023
    ENCODING 35
    SWIDTH 800 0
    DWIDTH 8 0
    BBX 8 8 0 0
    BITMAP
    36
36
7F
36
7F
36
36
00
    ENDCHAR
STARTCHAR U+0024
    ENCODING 36
    SWIDTH 800 0
    DWIDTH 8 0
    BBX 8 8 0 0
    BITMAP
    0C
3E
03
1E
30
1F
0C
00
    ENDCHAR
STARTCHAR U+0025
    ENCODING 37
    SWIDTH 800 0
    DWIDTH 8 0
    BBX 8 8 0 0
    BITMAP
    00
63
33
18
0C
66
63
00
    ENDCHAR
STARTCHAR U+0026
    ENCODING 38
    SWIDTH 800 0
    DWIDTH 8 0
    BBX 8 8 0 0
    BITMAP
    1C
36
1C
6E
3B
33
6E
00
    ENDCHAR
STARTCHAR U+0027
    ENCODING 39
    SWIDTH 800 0
    DWIDTH 8 0
    BBX 8 8 0 0
    BITMAP
    06
06
03
00
00
00
00
00
    ENDCHAR
STARTCHAR U+0028
    ENCODING 40
    SWIDTH 800 0
    DWIDTH 8 0
    BBX 8 8 0 0
    BITMAP
    18
0C
06
06
06
0C
18
00
    ENDCHAR
STARTCHAR U+0029
    ENCODING 41
    SWIDTH 800 0
    DWIDTH 8 0
    BBX 8 8 0 0
    BITMAP
    06
0C
18
18
18
0C
06
00
    ENDCHAR
STARTCHAR U+002A
    ENCODING 42
    SWIDTH 800 0
    DWIDTH 8 0
    BBX 8 8 0 0
    BITMAP
    00
66
3C
FF
3C
66
00
00
    ENDCHAR
STARTCHAR U+002B
    ENCODING 43
    SWIDTH 800 0
    DWIDTH 8 0
    BBX 8 8 0 0
    BITMAP
    00
0C
0C
3F
0C
0C
00
00
    ENDCHAR
STARTCHAR U+002C
    ENCODING 44
    SWIDTH 800 0
    DWIDTH 8 0
    BBX 8 8 0 0
    BITMAP
    00
00
00
00
00
0C
0C
06
    ENDCHAR
STARTCHAR U+002D
    ENCODING 45
    SWIDTH 800 0
    DWIDTH 8 0
    BBX 8 8 0 0
    BITMAP
    00
00
00
3F
00
00
00
00
    ENDCHAR
STARTCHAR U+002E
    ENCODING 46
    SWIDTH 800 0
    DWIDTH 8 0
    BBX 8 8 0 0
    BITMAP
    00
00
00
00
00
0C
0C
00
    ENDCHAR
STARTCHAR U+002F
    ENCODING 47
    SWIDTH 800 0
    DWIDTH 8 0
    BBX 8 8 0 0
    BITMAP
    60
30
18
0C
06
03
01
00
    ENDCHAR
STARTCHAR U+0030
    ENCODING 48
    SWIDTH 800 0
    DWIDTH 8 0
    BBX 8 8 0 0
    BITMAP
    3E
63
73
7B
6F
67
3E
00
    ENDCHAR
STARTCHAR U+0031
    ENCODING 49
    SWIDTH 800 0
    DWIDTH 8 0
    BBX 8 8 0 0
    BITMAP
    0C
0E
0F
0C
0C
0C
3F
00
    ENDCHAR
STARTCHAR U+0032
    ENCODING 50
    SWIDTH 800 0
    DWIDTH 8 0
    BBX 8 8 0 0
    BITMAP
    1E
33
30
1C
06
33
3F
00
    ENDCHAR
STARTCHAR U+0033
    ENCODING 51
    SWIDTH 800 0
    DWIDTH 8 0
    BBX 8 8 0 0
    BITMAP
    1E
33
30
1C
30
33
1E
00
    ENDCHAR
STARTCHAR U+0034
    ENCODING 52
    SWIDTH 800 0
    DWIDTH 8 0
    BBX 8 8 0 0
    BITMAP
    38
3C
36
33
7F
30
78
00
    ENDCHAR
STARTCHAR U+0035
    ENCODING 53
    SWIDTH 800 0
    DWIDTH 8 0
    BBX 8 8 0 0
    BITMAP
    3F
03
1F
30
30
33
1E
00
    ENDCHAR
STARTCHAR U+0036
    ENCODING 54
    SWIDTH 800 0
    DWIDTH 8 0
    BBX 8 8 0 0
    BITMAP
    1C
06
03
1F
33
33
1E
00
    ENDCHAR
STARTCHAR U+0037
    ENCODING 55
    SWIDTH 800 0
    DWIDTH 8 0
    BBX 8 8 0 0
    BITMAP
    3F
33
30
18
0C
0C
0C
00
    ENDCHAR
STARTCHAR U+0038
    ENCODING 56
    SWIDTH 800 0
    DWIDTH 8 0
    BBX 8 8 0 0
    BITMAP
    1E
33
33
1E
33
33
1E
00
    ENDCHAR
STARTCHAR U+0039
    ENCODING 57
    SWIDTH 800 0
    DWIDTH 8 0
    BBX 8 8 0 0
    BITMAP
    1E
33
33
3E
30
18
0E
00
    ENDCHAR
STARTCHAR U+003A
    ENCODING 58
    SWIDTH 800 0
    DWIDTH 8 0
    BBX 8 8 0 0
    BITMAP
    00
0C
0C
00
00
0C
0C
00
    ENDCHAR
STARTCHAR U+003B
    ENCODING 59
    SWIDTH 800 0
    DWIDTH 8 0
    BBX 8 8 0 0
    BITMAP
    00
0C
0C
00
00
0C
0C
06
    ENDCHAR
STARTCHAR U+003C
    ENCODING 60
    SWIDTH 800 0
    DWIDTH 8 0
    BBX 8 8 0 0
    BITMAP
    18
0C
06
03
06
0C
18
00
    ENDCHAR
STARTCHAR U+003D
    ENCODING 61
    SWIDTH 800 0
    DWIDTH 8 0
    BBX 8 8 0 0
    BITMAP
    00
00
3F
00
3F
00
00
00
    ENDCHAR
STARTCHAR U+003E
    ENCODING 62
    SWIDTH 800 0
    DWIDTH 8 0
    BBX 8 8 0 0
    BITMAP
    06
0C
18
30
18
0C
06
00
    ENDCHAR
STARTCHAR U+003F
    ENCODING 63
    SWIDTH 800 0
    DWIDTH 8 0
    BBX 8 8 0 0
    BITMAP
    1E
33
30
18
0C
00
0C
00
    ENDCHAR
STARTCHAR U+0040
    ENCODING 64
    SWIDTH 800 0
    DWIDTH 8 0
    BBX 8 8 0 0
    BITMAP
    3E
63
7B
7B
7B
03
1E
00
    ENDCHAR
STARTCHAR U+0041
    ENCODING 65
    SWIDTH 800 0
    DWIDTH 8 0
    BBX 8 8 0 0
    BITMAP
    0C
1E
33
33
3F
33
33
00
    ENDCHAR
STARTCHAR U+0042
    ENCODING 66
    SWIDTH 800 0
    DWIDTH 8 0
    BBX 8 8 0 0
    BITMAP
    3F
66
66
3E
66
66
3F
00
    ENDCHAR
STARTCHAR U+0043
    ENCODING 67
    SWIDTH 800 0
    DWIDTH 8 0
    BBX 8 8 0 0
    BITMAP
    3C
66
03
03
03
66
3C
00
    ENDCHAR
STARTCHAR U+0044
    ENCODING 68
    SWIDTH 800 0
    DWIDTH 8 0
    BBX 8 8 0 0
    BITMAP
    1F
36
66
66
66
36
1F
00
    ENDCHAR
STARTCHAR U+0045
    ENCODING 69
    SWIDTH 800 0
    DWIDTH 8 0
    BBX 8 8 0 0
    BITMAP
    7F
46
16
1E
16
46
7F
00
    ENDCHAR
STARTCHAR U+0046
    ENCODING 70
    SWIDTH 800 0
    DWIDTH 8 0
    BBX 8 8 0 0
    BITMAP
    7F
46
16
1E
16
06
0F
00
    ENDCHAR
STARTCHAR U+0047
    ENCODING 71
    SWIDTH 800 0
    DWIDTH 8 0
    BBX 8 8 0 0
    BITMAP
    3C
66
03
03
73
66
7C
00
    ENDCHAR
STARTCHAR U+0048
    ENCODING 72
    SWIDTH 800 0
    DWIDTH 8 0
    BBX 8 8 0 0
    BITMAP
    33
33
33
3F
33
33
33
00
    ENDCHAR
STARTCHAR U+0049
    ENCODING 73
    SWIDTH 800 0
    DWIDTH 8 0
    BBX 8 8 0 0
    BITMAP
    1E
0C
0C
0C
0C
0C
1E
00
    ENDCHAR
STARTCHAR U+004A
    ENCODING 74
    SWIDTH 800 0
    DWIDTH 8 0
    BBX 8 8 0 0
    BITMAP
    78
30
30
30
33
33
1E
00
    ENDCHAR
STARTCHAR U+004B
    ENCODING 75
    SWIDTH 800 0
    DWIDTH 8 0
    BBX 8 8 0 0
    BITMAP
    67
66
36
1E
36
66
67
00
    ENDCHAR
STARTCHAR U+004C
    ENCODING 76
    SWIDTH 800 0
    DWIDTH 8 0
    BBX 8 8 0 0
    BITMAP
    0F
06
06
06
46
66
7F
00
    ENDCHAR
STARTCHAR U+004D
    ENCODING 77
    SWIDTH 800 0
    DWIDTH 8 0
    BBX 8 8 0 0
    BITMAP
    63
77
7F
7F
6B
63
63
00
    ENDCHAR
STARTCHAR U+004E
    ENCODING 78
    SWIDTH 800 0
    DWIDTH 8 0
    BBX 8 8 0 0
    BITMAP
    63
67
6F
7B
73
63
63
00
    ENDCHAR
STARTCHAR U+004F
    ENCODING 79
    SWIDTH 800 0
    DWIDTH 8 0
    BBX 8 8 0 0
    BITMAP
    1C
36
63
63
63
36
1C
00
    ENDCHAR
STARTCHAR U+0050
    ENCODING 80
    SWIDTH 800 0
    DWIDTH 8 0
    BBX 8 8 0 0
    BITMAP
    3F
66
66
3E
06
06
0F
00
    ENDCHAR
STARTCHAR U+0051
    ENCODING 81
    SWIDTH 800 0
    DWIDTH 8 0
    BBX 8 8 0 0
    BITMAP
    1E
33
33
33
3B
1E
38
00
    ENDCHAR
STARTCHAR U+0052
    ENCODING 82
    SWIDTH 800 0
    DWIDTH 8 0
    BBX 8 8 0 0
    BITMAP
    3F
66
66
3E
36
66
67
00
    ENDCHAR
STARTCHAR U+0053
    ENCODING 83
    SWIDTH 800 0
    DWIDTH 8 0
    BBX 8 8 0 0
    BITMAP
    1E
33
07
0E
38
33
1E
00
    ENDCHAR
STARTCHAR U+0054
    ENCODING 84
    SWIDTH 800 0
    DWIDTH 8 0
    BBX 8 8 0 0
    BITMAP
    3F
2D
0C
0C
0C
0C
1E
00
    ENDCHAR
STARTCHAR U+0055
    ENCODING 85
    SWIDTH 800 0
    DWIDTH 8 0
    BBX 8 8 0 0
    BITMAP
    33
33
33
33
33
33
3F
00
    ENDCHAR
STARTCHAR U+0056
    ENCODING 86
    SWIDTH 800 0
    DWIDTH 8 0
    BBX 8 8 0 0
    BITMAP
    63
63
63
63
63
36
1C
00
    ENDCHAR
STARTCHAR U+0057
    ENCODING 87
    SWIDTH 800 0
    DWIDTH 8 0
    BBX 8 8 0 0
    BITMAP
    63
63
63
6B
7F
77
63
00
    ENDCHAR
STARTCHAR U+0058
    ENCODING 88
    SWIDTH 800 0
    DWIDTH 8 0
    BBX 8 8 0 0
    BITMAP
    63
63
36
1C
1C
36
63
00
    ENDCHAR
STARTCHAR U+0059
    ENCODING 89
    SWIDTH 800 0
    DWIDTH 8 0
    BBX 8 8 0 0
    BITMAP
    33
33
33
1E
0C
0C
1E
00
    ENDCHAR
STARTCHAR U+005A
    ENCODING 90
    SWIDTH 800 0
    DWIDTH 8 0
    BBX 8 8 0 0
    BITMAP
    7F
63
31
18
0C
46
7F
00
    ENDCHAR
STARTCHAR U+005B
    ENCODING 91
    SWIDTH 800 0
    DWIDTH 8 0
    BBX 8 8 0 0
    BITMAP
    1E
06
06
06
06
06
1E
00
    ENDCHAR
STARTCHAR U+005C
    ENCODING 92
    SWIDTH 800 0
    DWIDTH 8 0
    BBX 8 8 0 0
    BITMAP
    03
06
0C
18
30
60
40
00
    ENDCHAR
STARTCHAR U+005D
    ENCODING 93
    SWIDTH 800 0
    DWIDTH 8 0
    BBX 8 8 0 0
    BITMAP
    1E
18
18
18
18
18
1E
00
    ENDCHAR
STARTCHAR U+005E
    ENCODING 94
    SWIDTH 800 0
    DWIDTH 8 0
    BBX 8 8 0 0
    BITMAP
    08
1C
36
63
00
00
00
00
    ENDCHAR
STARTCHAR U+005F
    ENCODING 95
    SWIDTH 800 0
    DWIDTH 8 0
    BBX 8 8 0 0
    BITMAP
    00
00
00
00
00
00
00
FF
    ENDCHAR
STARTCHAR U+0060
    ENCODING 96
    SWIDTH 800 0
    DWIDTH 8 0
    BBX 8 8 0 0
    BITMAP
    0C
0C
06
00
00
00
00
00
    ENDCHAR
STARTCHAR U+0061
    ENCODING 97
    SWIDTH 800 0
    DWIDTH 8 0
    BBX 8 8 0 0
    BITMAP
    00
00
1E
30
3E
33
6E
00
    ENDCHAR
STARTCHAR U+0062
    ENCODING 98
    SWIDTH 800 0
    DWIDTH 8 0
    BBX 8 8 0 0
    BITMAP
    07
06
06
3E
66
66
3B
00
    ENDCHAR
STARTCHAR U+0063
    ENCODING 99
    SWIDTH 800 0
    DWIDTH 8 0
    BBX 8 8 0 0
    BITMAP
    00
00
1E
33
03
33
1E
00
    ENDCHAR
STARTCHAR U+0064
    ENCODING 100
    SWIDTH 800 0
    DWIDTH 8 0
    BBX 8 8 0 0
    BITMAP
    38
30
30
3E
33
33
6E
00
    ENDCHAR
STARTCHAR U+0065
    ENCODING 101
    SWIDTH 800 0
    DWIDTH 8 0
    BBX 8 8 0 0
    BITMAP
    00
00
1E
33
3F
03
1E
00
    ENDCHAR
STARTCHAR U+0066
    ENCODING 102
    SWIDTH 800 0
    DWIDTH 8 0
    BBX 8 8 0 0
    BITMAP
    1C
36
06
0F
06
06
0F
00
    ENDCHAR
STARTCHAR U+0067
    ENCODING 103
    SWIDTH 800 0
    DWIDTH 8 0
    BBX 8 8 0 0
    BITMAP
    00
00
6E
33
33
3E
30
1F
    ENDCHAR
STARTCHAR U+0068
    ENCODING 104
    SWIDTH 800 0
    DWIDTH 8 0
    BBX 8 8 0 0
    BITMAP
    07
06
36
6E
66
66
67
00
    ENDCHAR
STARTCHAR U+0069
    ENCODING 105
    SWIDTH 800 0
    DWIDTH 8 0
    BBX 8 8 0 0
    BITMAP
    0C
00
0E
0C
0C
0C
1E
00
    ENDCHAR
STARTCHAR U+006A
    ENCODING 106
    SWIDTH 800 0
    DWIDTH 8 0
    BBX 8 8 0 0
    BITMAP
    30
00
38
30
30
33
33
1E
    ENDCHAR
STARTCHAR U+006B
    ENCODING 107
    SWIDTH 800 0
    DWIDTH 8 0
    BBX 8 8 0 0
    BITMAP
    07
06
66
36
1E
36
67
00
    ENDCHAR
STARTCHAR U+006C
    ENCODING 108
    SWIDTH 800 0
    DWIDTH 8 0
    BBX 8 8 0 0
    BITMAP
    0E
0C
0C
0C
0C
0C
1E
00
    ENDCHAR
STARTCHAR U+006D
    ENCODING 109
    SWIDTH 800 0
    DWIDTH 8 0
    BBX 8 8 0 0
    BITMAP
    00
00
33
7F
7F
6B
63
00
    ENDCHAR
STARTCHAR U+006E
    ENCODING 110
    SWIDTH 800 0
    DWIDTH 8 0
    BBX 8 8 0 0
    BITMAP
    00
00
1B
37
33
33
33
00
    ENDCHAR
STARTCHAR U+006F
    ENCODING 111
    SWIDTH 800 0
    DWIDTH 8 0
    BBX 8 8 0 0
    BITMAP
    00
00
1E
33
33
33
1E
00
    ENDCHAR
STARTCHAR U+0070
    ENCODING 112
    SWIDTH 800 0
    DWIDTH 8 0
    BBX 8 8 0 0
    BITMAP
    00
00
3B
66
66
3E
06
0F
    ENDCHAR
STARTCHAR U+0071
    ENCODING 113
    SWIDTH 800 0
    DWIDTH 8 0
    BBX 8 8 0 0
    BITMAP
    00
00
6E
33
33
3E
30
78
    ENDCHAR
STARTCHAR U+0072
    ENCODING 114
    SWIDTH 800 0
    DWIDTH 8 0
    BBX 8 8 0 0
    BITMAP
    00
00
1B
36
36
0E
06
00
    ENDCHAR
STARTCHAR U+0073
    ENCODING 115
    SWIDTH 800 0
    DWIDTH 8 0
    BBX 8 8 0 0
    BITMAP
    00
00
3E
03
1E
30
1F
00
    ENDCHAR
STARTCHAR U+0074
    ENCODING 116
    SWIDTH 800 0
    DWIDTH 8 0
    BBX 8 8 0 0
    BITMAP
    08
0C
3E
0C
0C
2C
18
00
    ENDCHAR
STARTCHAR U+0075
    ENCODING 117
    SWIDTH 800 0
    DWIDTH 8 0
    BBX 8 8 0 0
    BITMAP
    00
00
33
33
33
33
6E
00
    ENDCHAR
STARTCHAR U+0076
    ENCODING 118
    SWIDTH 800 0
    DWIDTH 8 0
    BBX 8 8 0 0
    BITMAP
    00
00
33
33
33
1E
0C
00
    ENDCHAR
STARTCHAR U+0077
    ENCODING 119
    SWIDTH 800 0
    DWIDTH 8 0
    BBX 8 8 0 0
    BITMAP
    00
00
63
6B
7F
7F
36
00
    ENDCHAR
STARTCHAR U+0078
    ENCODING 120
    SWIDTH 800 0
    DWIDTH 8 0
    BBX 8 8 0 0
    BITMAP
    00
00
63
36
1C
36
63
00
    ENDCHAR
STARTCHAR U+0079
    ENCODING 121
    SWIDTH 800 0
    DWIDTH 8 0
    BBX 8 8 0 0
    BITMAP
    00
00
33
33
33
3E
30
1F
    ENDCHAR
STARTCHAR U+007A
    ENCODING 122
    SWIDTH 800 0
    DWIDTH 8 0
    BBX 8 8 0 0
    BITMAP
    00
00
3F
19
0C
26
3F
00
    ENDCHAR
STARTCHAR U+007B
    ENCODING 123
    SWIDTH 800 0
    DWIDTH 8 0
    BBX 8 8 0 0
    BITMAP
    38
0C
0C
07
0C
0C
38
00
    ENDCHAR
STARTCHAR U+007C
    ENCODING 124
    SWIDTH 800 0
    DWIDTH 8 0
    BBX 8 8 0 0
    BITMAP
    18
18
18
00
18
18
18
00
    ENDCHAR
STARTCHAR U+007D
    ENCODING 125
    SWIDTH 800 0
    DWIDTH 8 0
    BBX 8 8 0 0
    BITMAP
    0E
18
18
70
18
18
0E
00
    ENDCHAR
STARTCHAR U+007E
    ENCODING 126
    SWIDTH 800 0
    DWIDTH 8 0
    BBX 8 8 0 0
    BITMAP
    6E
3B
00
00
00
00
00
00
    ENDCHAR
STARTCHAR DEL
    ENCODING 127
    SWIDTH 800 0
    DWIDTH 8 0
    BBX 8 8 0 0
    BITMAP
    00
00
00
00
00
00
00
00
    ENDCHAR
ENDFONT
